<svg width="24" height="24" viewBox="0 0 24 24" fill="none" xmlns="http://www.w3.org/2000/svg">
<path d="M14.8867 8.10062C14.8867 9.67498 13.5941 10.9512 11.9996 10.9512C10.4052 10.9512 9.11263 9.67498 9.11263 8.10062C9.11263 6.52627 10.4052 5.25 11.9996 5.25C13.5941 5.25 14.8867 6.52627 14.8867 8.10062Z" fill="currentColor"/>
<path d="M6.57552 15.8911C6.85828 13.9567 8.37497 12.3759 10.3491 12.2339C11.4771 12.1528 12.5262 12.1526 13.652 12.2335C15.6254 12.3751 17.141 13.9558 17.4236 15.8894L17.4786 16.2655C17.6415 17.3799 16.8574 18.4201 15.7236 18.5402C13.0625 18.8219 10.9456 18.8187 8.28056 18.538C7.14492 18.4184 6.35826 17.3773 6.52142 16.2612L6.57552 15.8911Z" fill="currentColor"/>
<path d="M7.58108 11.6581C7.22532 11.6655 6.86686 11.6821 6.49921 11.7079C4.70452 11.8341 3.32571 13.2393 3.06865 14.9587L3.01947 15.2877C2.87115 16.2798 3.58629 17.2052 4.61869 17.3115C4.77906 17.3281 4.93725 17.3435 5.09354 17.3578C4.99446 16.9384 4.97144 16.4942 5.03723 16.0442L5.09132 15.6741C5.32907 14.0477 6.23822 12.5678 7.58108 11.6581Z" fill="currentColor"/>
<path d="M8.4537 5.53778C8.30622 5.51295 8.15451 5.5 7.99967 5.5C6.55017 5.5 5.37512 6.63446 5.37512 8.03389C5.37512 9.43332 6.55017 10.5678 7.99967 10.5678C8.1247 10.5678 8.24769 10.5593 8.36805 10.543C7.89195 9.84878 7.61266 9.00927 7.61266 8.10063C7.61266 7.13877 7.92562 6.25439 8.4537 5.53778Z" fill="currentColor"/>
<path d="M18.9069 17.3603C19.0643 17.3458 19.2236 17.3302 19.3851 17.3135C20.4158 17.2068 21.1286 16.2822 20.9805 15.2915L20.9306 14.9572C20.6736 13.2385 19.2958 11.8335 17.5018 11.7075C17.1345 11.6817 16.7761 11.6652 16.4202 11.658C17.7621 12.5677 18.6703 14.0472 18.9079 15.6724L18.9628 16.0485C19.0285 16.4977 19.0057 16.9413 18.9069 17.3603Z" fill="currentColor"/>
<path d="M15.6313 10.543C15.7517 10.5593 15.8746 10.5678 15.9997 10.5678C17.4492 10.5678 18.6242 9.43332 18.6242 8.03389C18.6242 6.63446 17.4492 5.5 15.9997 5.5C15.8448 5.5 15.6931 5.51295 15.5456 5.53778C16.0737 6.25438 16.3867 7.13877 16.3867 8.10063C16.3867 9.00927 16.1074 9.84878 15.6313 10.543Z" fill="currentColor"/>
</svg>
