<svg width="25" height="24" viewBox="0 0 25 24" fill="none" xmlns="http://www.w3.org/2000/svg">
<path fill-rule="evenodd" clip-rule="evenodd" d="M6.66216 3C4.90129 3 3.5 4.37906 3.5 6.04926V19.0976C3.5 20.0538 4.66886 20.6248 5.47982 20.0007L6.57978 19.1542L7.944 20.6124C8.42758 21.1292 9.27513 21.1292 9.7587 20.6124L11.0405 19.2423L12.2747 20.5614C12.7994 21.1222 13.7336 21.0654 14.1811 20.4504L15.085 19.2083L16.1148 20.0007C16.9257 20.6248 18.0946 20.0538 18.0946 19.0976V10.493H20.2838C20.9699 10.493 21.5 9.95813 21.5 9.3293V5.34218C21.5 4.53656 21.1459 3.91706 20.5893 3.51884C20.0609 3.14086 19.4063 3 18.8243 3H6.66216ZM20.0405 9.10838H18.0946V5.34218C18.0946 5.00319 18.192 4.75271 18.3157 4.60332C18.4249 4.47146 18.5785 4.38462 18.8243 4.38462C19.1827 4.38462 19.5011 4.47452 19.7106 4.62439C19.8918 4.75403 20.0405 4.95946 20.0405 5.34218V9.10838ZM6.66216 8.76923C6.66216 8.38688 6.98887 8.07692 7.39189 8.07692H14.2027C14.6057 8.07692 14.9324 8.38688 14.9324 8.76923C14.9324 9.15158 14.6057 9.46154 14.2027 9.46154H7.39189C6.98887 9.46154 6.66216 9.15158 6.66216 8.76923ZM7.39189 10.8462C6.98887 10.8462 6.66216 11.1561 6.66216 11.5385C6.66216 11.9208 6.98887 12.2308 7.39189 12.2308H14.2027C14.6057 12.2308 14.9324 11.9208 14.9324 11.5385C14.9324 11.1561 14.6057 10.8462 14.2027 10.8462H7.39189ZM6.66216 14.3077C6.66216 13.9253 6.98887 13.6154 7.39189 13.6154H12.0135C12.4165 13.6154 12.7432 13.9253 12.7432 14.3077C12.7432 14.69 12.4165 15 12.0135 15H7.39189C6.98887 15 6.66216 14.69 6.66216 14.3077Z" fill="currentColor"/>
</svg>
