<svg width="18" height="18" viewBox="0 0 18 18" fill="none" xmlns="http://www.w3.org/2000/svg">
<path fill-rule="evenodd" clip-rule="evenodd" d="M2.41926 17.4083C6.88697 17.7226 10.0415 17.7233 14.5669 17.4067C15.6909 17.3281 16.5817 16.5891 16.6747 15.6613C16.7383 15.0269 16.7922 14.4247 16.8359 13.8441H14.9144C13.1476 13.8441 11.6572 12.443 11.6572 10.6441C11.6572 8.84514 13.1476 7.44409 14.9144 7.44409H16.8564C16.8132 6.8572 16.7575 6.24916 16.6888 5.60856C16.5904 4.69098 15.7056 3.96466 14.5936 3.88523C13.5109 3.80788 12.5062 3.74915 11.5414 3.70902C8.48573 3.58191 5.83174 3.64143 2.37456 3.88722C1.27745 3.96522 0.399478 4.67276 0.284812 5.57441L0.282023 5.59772C-0.137443 9.33783 -0.0560431 11.9592 0.309733 15.6559C0.401771 16.5861 1.29254 17.329 2.41926 17.4083ZM4 6.60001C3.58579 6.60001 3.25 6.93579 3.25 7.35001C3.25 7.76422 3.58579 8.10001 4 8.10001H9C9.41421 8.10001 9.75 7.76422 9.75 7.35001C9.75 6.93579 9.41421 6.60001 9 6.60001H4Z" fill="currentColor"/>
<path d="M16.9715 8.64408H14.9143C13.7782 8.64408 12.8572 9.53951 12.8572 10.6441C12.8572 11.7487 13.7782 12.6441 14.9143 12.6441H16.9715C17.5395 12.6441 18 12.1964 18 11.6441V9.64408C18 9.0918 17.5395 8.64408 16.9715 8.64408Z" fill="currentColor"/>
<path d="M8.23684 0.36541L2.89729 0.942213C1.78434 1.06244 0.875012 1.86851 0.686961 2.94174C0.639983 3.20985 0.596676 3.4667 0.557129 3.70903C0.842915 3.49211 1.60649 3.04661 2.37451 3C3.33453 2.94174 8.99498 2.74918 11.2475 2.87459L10.9535 2.04015C10.5633 0.932151 9.43411 0.236076 8.23684 0.36541Z" fill="currentColor"/>
</svg>
